<?xml version="1.0" encoding="UTF-8" standalone="no"?>
<svg
   id="Layer_1"
   data-name="Layer 1"
   viewBox="0 0 206.86 206.86"
   version="1.1"
   sodipodi:docname="philppl.svg"
   inkscape:version="1.4.2 (ebf0e940d0, 2025-05-08)"
   xmlns:inkscape="http://www.inkscape.org/namespaces/inkscape"
   xmlns:sodipodi="http://sodipodi.sourceforge.net/DTD/sodipodi-0.dtd"
   xmlns="http://www.w3.org/2000/svg"
   xmlns:svg="http://www.w3.org/2000/svg">
  <sodipodi:namedview
     id="namedview3"
     pagecolor="#ffffff"
     bordercolor="#000000"
     borderopacity="0.25"
     inkscape:showpageshadow="2"
     inkscape:pageopacity="0.0"
     inkscape:pagecheckerboard="0"
     inkscape:deskcolor="#d1d1d1"
     inkscape:zoom="4"
     inkscape:cx="77.5"
     inkscape:cy="98.75"
     inkscape:window-width="2560"
     inkscape:window-height="1371"
     inkscape:window-x="0"
     inkscape:window-y="32"
     inkscape:window-maximized="1"
     inkscape:current-layer="Layer_1" />
  <defs
     id="defs1">
    <style
       id="style1">
      .cls-1 {
        fill: #109d49;
      }

      .cls-2 {
        fill: #074ba9;
      }
    </style>
  </defs>
  <path
     id="rect3"
     style="fill:#c1c1c1;stroke-width:1.16031"
     d="M 21.019531 0 C 22.109531 0.39 23.149375 0.80929688 24.109375 1.2792969 C 28.459375 3.3992969 32.060625 6.65 34.890625 11 L 34.880859 11 C 36.840859 14.16 38.230781 18.270078 39.050781 23.330078 C 39.870781 28.400078 40.279297 35.610469 40.279297 44.980469 L 40.279297 165.39062 C 40.279297 176.61062 39.680469 184.8907 38.480469 190.2207 C 37.290469 195.5507 34.940937 199.96922 31.460938 203.44922 C 30.220938 204.72922 28.909766 205.85938 27.509766 206.85938 L 0 206.85938 L 0 206.88281 L 206.85156 206.88281 L 206.85156 206.84961 L 88.830078 206.84961 C 87.430078 205.84961 86.110859 204.71945 84.880859 203.43945 C 81.510859 199.95945 79.189453 195.52086 77.939453 190.13086 C 76.689453 184.74086 76.060547 176.49086 76.060547 165.38086 L 76.060547 106.73047 L 108.08008 106.73047 C 122.23008 106.73047 131.16914 106.57023 134.86914 106.24023 C 146.51914 105.26023 156.42961 102.37008 164.59961 97.580078 C 180.28961 88.330078 188.13086 73.400781 188.13086 53.800781 C 188.13086 34.200781 180.38969 18.51 164.92969 6.75 C 161.40969 4.02 157.68906 1.78 153.78906 0 L 112.58398 0 C 119.36586 1.532835 125.38056 4.47892 130.61914 8.859375 C 136.38914 13.549375 140.82969 19.620078 143.92969 27.080078 C 147.03969 34.540078 148.58984 42.739922 148.58984 51.669922 C 148.58984 67.789922 143.25008 80.700625 132.58008 90.390625 C 128.01008 94.640625 122.81047 97.550859 116.98047 99.130859 C 111.16047 100.71086 102.85031 101.5 92.070312 101.5 L 76.060547 101.5 L 76.060547 0 L 21.019531 0 z " />
</svg>
